<svg width="400" height="500" viewBox="0 0 400 500" fill="none" xmlns="http://www.w3.org/2000/svg">
  <!-- Fond parchemin -->
  <rect width="400" height="500" fill="#F5E6D3"/>
  
  <!-- Texture papier ancien -->
  <filter id="paper5">
    <feTurbulence type="fractalNoise" baseFrequency="0.04" numOctaves="5" result="noise"/>
    <feDiffuseLighting in="noise" lighting-color="#8B7355" surfaceScale="1">
      <feDistantLight azimuth="45" elevation="60"/>
    </feDiffuseLighting>
  </filter>
  <rect width="400" height="500" filter="url(#paper5)" opacity="0.3"/>
  
  <!-- Bordure décorative -->
  <rect x="20" y="20" width="360" height="460" fill="none" stroke="#8B5A12" stroke-width="2"/>
  <rect x="25" y="25" width="350" height="450" fill="none" stroke="#D6A84A" stroke-width="1"/>
  
  <!-- Coins ornementaux -->
  <path d="M 30 30 L 60 30 L 30 60 Z" fill="#8B5A12" opacity="0.3"/>
  <path d="M 370 30 L 340 30 L 370 60 Z" fill="#8B5A12" opacity="0.3"/>
  <path d="M 30 470 L 60 470 L 30 440 Z" fill="#8B5A12" opacity="0.3"/>
  <path d="M 370 470 L 340 470 L 370 440 Z" fill="#8B5A12" opacity="0.3"/>
  
  <!-- Symbole central: Étoile de manifestation avec cercles -->
  <g transform="translate(200, 200)">
    <!-- Cercles concentriques -->
    <circle cx="0" cy="0" r="90" fill="none" stroke="#8B5A12" stroke-width="2"/>
    <circle cx="0" cy="0" r="75" fill="none" stroke="#D6A84A" stroke-width="1.5"/>
    <circle cx="0" cy="0" r="60" fill="none" stroke="#8B5A12" stroke-width="1" stroke-dasharray="3,3"/>
    
    <!-- Étoile à 8 branches (manifestation) -->
    <path d="M 0 -70 L 15 -15 L 70 0 L 15 15 L 0 70 L -15 15 L -70 0 L -15 -15 Z" 
          fill="none" stroke="#8B5A12" stroke-width="3"/>
    
    <!-- Étoile intérieure -->
    <path d="M 0 -40 L 10 -10 L 40 0 L 10 10 L 0 40 L -10 10 L -40 0 L -10 -10 Z" 
          fill="none" stroke="#D6A84A" stroke-width="2"/>
    
    <!-- Centre: Œil de manifestation -->
    <circle cx="0" cy="0" r="20" fill="none" stroke="#8B5A12" stroke-width="2"/>
    <circle cx="0" cy="0" r="8" fill="#8B5A12"/>
    
    <!-- Rayons de création -->
    <g stroke="#D6A84A" stroke-width="1.5" opacity="0.7">
      <line x1="50" y1="-50" x2="60" y2="-60"/>
      <line x1="50" y1="50" x2="60" y2="60"/>
      <line x1="-50" y1="50" x2="-60" y2="60"/>
      <line x1="-50" y1="-50" x2="-60" y2="-60"/>
    </g>
    
    <!-- Symboles aux 4 directions -->
    <text x="0" y="-95" font-family="serif" font-size="18" fill="#8B5A12" text-anchor="middle">✦</text>
    <text x="95" y="5" font-family="serif" font-size="18" fill="#8B5A12" text-anchor="middle">✧</text>
    <text x="0" y="105" font-family="serif" font-size="18" fill="#8B5A12" text-anchor="middle">✦</text>
    <text x="-95" y="5" font-family="serif" font-size="18" fill="#8B5A12" text-anchor="middle">✧</text>
  </g>
  
  <!-- Runes de manifestation -->
  <g transform="translate(200, 350)" fill="none" stroke="#8B5A12" stroke-width="2">
    <path d="M -90 0 L -90 30 M -80 0 L -90 15 L -80 30"/>
    <circle cx="-55" cy="15" r="15"/>
    <path d="M -55 0 L -55 30"/>
    <path d="M -20 0 L -20 30 M -10 0 L -10 30 M -20 15 L -10 15"/>
    <path d="M 10 0 L 10 30 M 20 0 L 10 15 L 20 30"/>
    <circle cx="50" cy="15" r="15"/>
    <path d="M 70 0 L 90 30 M 80 15 L 90 15"/>
  </g>
  
  <!-- Titre -->
  <text x="200" y="405" font-family="serif" font-size="24" font-weight="bold" 
        fill="#8B5A12" text-anchor="middle">RITUEL MANIFESTATION</text>
  <text x="200" y="430" font-family="serif" font-size="24" font-weight="bold" 
        fill="#8B5A12" text-anchor="middle">&amp; PROJET</text>
  
  <!-- Sous-titre -->
  <text x="200" y="460" font-family="serif" font-size="13" 
        fill="#6B4423" text-anchor="middle" font-style="italic">
    Concrétisez vos rêves
  </text>
  
  <!-- Graines de création -->
  <g transform="translate(70, 70)">
    <circle cx="0" cy="0" r="10" fill="none" stroke="#8B5A12" stroke-width="2"/>
    <path d="M 0 -10 L 0 -20 M -3 -15 L 3 -15" stroke="#8B5A12" stroke-width="1.5"/>
    <circle cx="0" cy="0" r="3" fill="#D6A84A"/>
  </g>
  
  <g transform="translate(330, 70)">
    <circle cx="0" cy="0" r="10" fill="none" stroke="#8B5A12" stroke-width="2"/>
    <path d="M 0 -10 L 0 -20 M -3 -15 L 3 -15" stroke="#8B5A12" stroke-width="1.5"/>
    <circle cx="0" cy="0" r="3" fill="#D6A84A"/>
  </g>
  
  <!-- Flèches de direction -->
  <g transform="translate(200, 120)" stroke="#D6A84A" stroke-width="2" fill="none">
    <path d="M -30 0 L -10 0 M -15 -5 L -10 0 L -15 5"/>
    <path d="M 10 0 L 30 0 M 25 -5 L 30 0 L 25 5"/>
  </g>
</svg>
